<?xml version="1.0" encoding="utf-8"?>
<!-- Generator: Adobe Illustrator 21.0.2, SVG Export Plug-In . SVG Version: 6.00 Build 0)  -->
<svg version="1.1" id="Layer_1" xmlns="http://www.w3.org/2000/svg" xmlns:xlink="http://www.w3.org/1999/xlink" x="0px" y="0px"
	 viewBox="0 0 25 25" style="enable-background:new 0 0 25 25;" xml:space="preserve">
<style type="text/css">
	.st0{fill:#FFFFFF;}
</style>
<g>
	<path class="st0" d="M20.4,10.9H4.6c-0.8,0-1.5,0.7-1.5,1.6c0,0.9,0.7,1.6,1.5,1.6h15.8c0.8,0,1.5-0.7,1.5-1.6
		C21.9,11.6,21.2,10.9,20.4,10.9z"/>
	<path class="st0" d="M20.4,4.7H4.6c-0.8,0-1.5,0.7-1.5,1.6s0.7,1.6,1.5,1.6h15.8c0.8,0,1.5-0.7,1.5-1.6S21.2,4.7,20.4,4.7z"/>
	<path class="st0" d="M20.4,17.2H4.6c-0.8,0-1.5,0.7-1.5,1.6s0.7,1.6,1.5,1.6h15.8c0.8,0,1.5-0.7,1.5-1.6S21.2,17.2,20.4,17.2z"/>
</g>
</svg>
