<?xml version="1.0" encoding="utf-8"?>
<!-- Generator: Adobe Illustrator 21.0.2, SVG Export Plug-In . SVG Version: 6.00 Build 0)  -->
<svg version="1.1" id="Layer_1" xmlns="http://www.w3.org/2000/svg" xmlns:xlink="http://www.w3.org/1999/xlink" x="0px" y="0px"
	 viewBox="0 0 25 25" style="enable-background:new 0 0 25 25;" xml:space="preserve">
<style type="text/css">
	.st0{fill:#FFFFFF;}
</style>
<path class="st0" d="M21.9,21.9c0,0,0-1.3-0.1-2c-0.1-0.5-0.8-1.2-4-2.4c-3.1-1.1-2.9-0.6-2.9-2.7c0-1.4,0.7-0.6,1.1-3.1
	c0.2-1,0.3-0.3,0.7-2c0.2-0.8-0.1-0.9-0.1-1.3s0.1-0.8,0.2-1.6c0.1-1-0.9-3.7-4.3-3.7S8.1,5.8,8.2,6.9C8.3,7.7,8.3,8,8.4,8.5
	c0,0.4-0.3,0.5-0.1,1.3c0.4,1.6,0.5,0.9,0.7,2c0.4,2.6,1.1,1.8,1.1,3.1c0,2.1,0.2,1.5-2.9,2.7c-3.1,1.1-3.9,1.9-4,2.4
	c-0.1,0.7-0.1,2-0.1,2h9.4H21.9z"/>
</svg>
