<?xml version="1.0" encoding="UTF-8"?>
<svg width="52px" height="52px" viewBox="0 0 52 52" version="1.1" xmlns="http://www.w3.org/2000/svg" xmlns:xlink="http://www.w3.org/1999/xlink">
    <!-- Generator: Sketch 42 (36781) - http://www.bohemiancoding.com/sketch -->
    <title>Adventure</title>
    <desc>Created with Sketch.</desc>
    <defs>
        <polygon id="path-1" points="0 0.000215770609 0 38.8387097 28 38.8387097 28 0.000215770609 1.51788304e-20 0.000215770609"></polygon>
    </defs>
    <g id="Main" stroke="none" stroke-width="1" fill="none" fill-rule="evenodd">
        <g id="Home-Page-(Default-v2)" transform="translate(-277.000000, -594.000000)">
            <g id="Bottom-Navigation" transform="translate(47.000000, 547.000000)">
                <g id="Adventure" transform="translate(231.000000, 48.000000)">
                    <circle id="Right" stroke="#000000" cx="25" cy="25" r="25"></circle>
                    <g id="Adv-Icon" transform="translate(11.000000, 6.000000)">
                        <mask id="mask-2" fill="white">
                            <use xlink:href="#path-1"></use>
                        </mask>
                        <g id="Clip-2"></g>
                        <path d="M12.320616,15.6460124 C12.320616,14.7397758 13.059256,14.0288116 14.000616,14.0288116 C14.941976,14.0288116 15.680616,14.7397758 15.680616,15.6460124 C15.680616,16.5517095 14.941976,17.2632131 14.000616,17.2632131 C13.059816,17.2632131 12.320616,16.5517095 12.320616,15.6460124 M10.080616,15.6460124 C10.080616,17.7168708 11.849096,19.4198403 14.000616,19.4198403 C16.152136,19.4198403 17.920616,17.7168708 17.920616,15.6460124 C17.920616,13.5746145 16.152136,11.8721844 14.000616,11.8721844 C11.849096,11.8721844 10.080616,13.5746145 10.080616,15.6460124 M2.451176,34.1763923 C2.934456,29.1635016 4.688936,27.0521862 7.280616,23.6138815 C7.447496,23.3959532 7.522536,23.1251611 7.490616,22.8559873 C7.364056,21.7372167 7.280616,20.5876987 7.280616,19.4198403 C7.280616,11.6396916 10.314136,5.10885466 14.000616,2.45595502 C17.687096,5.10885466 20.720616,11.6396916 20.720616,19.4198403 C20.720616,20.5876987 20.637176,21.7372167 20.510616,22.8559873 C20.479256,23.1251611 20.554296,23.3959532 20.720616,23.6138815 C23.312296,27.0521862 25.066776,29.1635016 25.550616,34.1763923 C23.777096,32.7555428 21.791336,31.7058188 19.232696,31.2953152 C18.752776,31.2117041 18.271176,31.436645 18.042696,31.851464 C16.982056,33.7804532 15.456616,35.3113457 14.000616,36.3324801 C12.544616,35.3113457 11.019176,33.7804532 9.958536,31.851464 C9.730056,31.436645 9.248456,31.2117041 8.768536,31.2953152 C6.209896,31.7058188 4.223576,32.7555428 2.451176,34.1763923 M0.001176,36.9727794 C0.060536,37.5650697 0.607656,37.9998475 1.223656,37.9421289 C1.499736,37.9173152 1.756776,37.7932471 1.943816,37.595817 C3.936296,35.4974478 5.801096,34.1736952 8.488536,33.5862597 C9.843736,35.7563726 11.577496,37.5909622 13.405336,38.6741306 C13.769336,38.8936772 14.231896,38.8936772 14.595336,38.6741306 C16.423736,37.5909622 18.157496,35.7563726 19.512696,33.5862597 C22.199576,34.1736952 24.064936,35.4974478 26.057976,37.595817 C26.477416,38.0327525 27.185816,38.0597238 27.640536,37.6551539 C27.867336,37.452869 27.997816,37.1696701 28.000056,36.8713672 C28.000056,29.3841271 25.637976,26.4447919 22.767976,22.6537023 C22.874376,21.6018206 22.960616,20.5278224 22.960616,19.4198403 C22.960616,10.6768152 19.656616,3.16314319 14.595336,0.164471147 C14.231896,-0.0545360215 13.769336,-0.0545360215 13.405336,0.164471147 C8.344616,3.16314319 5.040616,10.6768152 5.040616,19.4198403 C5.040616,20.5278224 5.126296,21.6018206 5.233256,22.6537023 C2.363816,26.4447919 0.001176,29.3841271 0.001176,36.8713672 C-0.000504,36.9053511 -0.000504,36.9387955 0.001176,36.9727794" id="Fill-1" fill="#54C3C2" mask="url(#mask-2)"></path>
                    </g>
                </g>
            </g>
        </g>
    </g>
</svg>