<?xml version="1.0" encoding="utf-8"?>
<!-- Generator: Adobe Illustrator 21.0.2, SVG Export Plug-In . SVG Version: 6.00 Build 0)  -->
<svg version="1.1" id="Layer_1" xmlns="http://www.w3.org/2000/svg" xmlns:xlink="http://www.w3.org/1999/xlink" x="0px" y="0px"
	 viewBox="0 0 81 99" style="enable-background:new 0 0 81 99;" xml:space="preserve">
<style type="text/css">
	.st0{fill:#FFFFFF;}
	.st1{fill:none;stroke:#000000;}
	.st2{fill:#54C3C2;}
</style>
<g>
	<polygon id="path-1_1_" class="st0" points="26.5,55 26.5,93.8 54.5,93.8 54.5,55 	"/>
</g>
<title>CheckIn</title>
<desc>Created with Sketch.</desc>
<g id="Main">
	<g id="Home-Page-_x28_Default-v2_x29_" transform="translate(-277.000000, -594.000000)">
		<g id="Bottom-Navigation" transform="translate(47.000000, 547.000000)">
			<g id="Adventure" transform="translate(231.000000, 48.000000)">
				<circle id="Right" class="st1" cx="54" cy="72" r="25"/>
				<g id="Adv-Icon" transform="translate(11.000000, 6.000000)">
					<g id="Clip-2">
					</g>
					<path id="Fill-1" class="st2" d="M41.3,62.6c0-0.9,0.7-1.6,1.7-1.6s1.7,0.7,1.7,1.6c0,0.9-0.7,1.6-1.7,1.6
						C42.1,64.3,41.3,63.6,41.3,62.6 M39.1,62.6c0,2.1,1.8,3.8,3.9,3.8s3.9-1.7,3.9-3.8c0-2.1-1.8-3.8-3.9-3.8
						C40.9,58.8,39.1,60.6,39.1,62.6 M31.5,81.2c0.5-5,2.2-7.1,4.8-10.6c0.2-0.2,0.2-0.5,0.2-0.8c-0.1-1.1-0.2-2.3-0.2-3.4
						c0-7.8,3-14.3,6.7-17c3.7,2.7,6.7,9.2,6.7,17c0,1.2-0.1,2.3-0.2,3.4c0,0.3,0,0.5,0.2,0.8c2.6,3.4,4.3,5.5,4.8,10.6
						c-1.8-1.4-3.8-2.5-6.3-2.9c-0.5-0.1-1,0.1-1.2,0.6c-1.1,1.9-2.6,3.5-4,4.5c-1.5-1-3-2.6-4-4.5c-0.2-0.4-0.7-0.6-1.2-0.6
						C35.2,78.7,33.2,79.8,31.5,81.2 M29,84c0.1,0.6,0.6,1,1.2,1c0.3,0,0.5-0.1,0.7-0.3c2-2.1,3.9-3.4,6.5-4c1.4,2.2,3.1,4,4.9,5.1
						c0.4,0.2,0.8,0.2,1.2,0c1.8-1.1,3.6-2.9,4.9-5.1c2.7,0.6,4.6,1.9,6.5,4c0.4,0.4,1.1,0.5,1.6,0.1c0.2-0.2,0.4-0.5,0.4-0.8
						c0-7.5-2.4-10.4-5.2-14.2c0.1-1.1,0.2-2.1,0.2-3.2c0-8.7-3.3-16.3-8.4-19.3c-0.4-0.2-0.8-0.2-1.2,0c-5.1,3-8.4,10.5-8.4,19.3
						c0,1.1,0.1,2.2,0.2,3.2C31.2,73.6,28.9,76.5,29,84C29,83.9,29,83.9,29,84"/>
				</g>
			</g>
		</g>
	</g>
</g>
</svg>
