<?xml version="1.0" encoding="UTF-8"?>
<svg width="52px" height="52px" viewBox="0 0 52 52" version="1.1" xmlns="http://www.w3.org/2000/svg" xmlns:xlink="http://www.w3.org/1999/xlink">
    <!-- Generator: Sketch 42 (36781) - http://www.bohemiancoding.com/sketch -->
    <title>TImeline</title>
    <desc>Created with Sketch.</desc>
    <defs></defs>
    <g id="Main" stroke="none" stroke-width="1" fill="none" fill-rule="evenodd">
        <g id="Home-Page-(Default-v2)" transform="translate(-46.000000, -595.000000)">
            <g id="Bottom-Navigation" transform="translate(47.000000, 547.000000)">
                <g id="TImeline" transform="translate(0.000000, 49.000000)">
                    <circle id="Left" stroke="#000000" cx="25" cy="25" r="25"></circle>
                    <g id="Timeline-Icon" transform="translate(9.000000, 8.000000)" fill-rule="nonzero" fill="#54C3C2">
                        <g id="Layer_1">
                            <path d="M32.3623385,2.76597325 L10.3706308,0.00555720654 C9.98566584,-0.0426704414 9.63428396,0.228732397 9.58573846,0.61179792 L9.03692308,4.93985141 L10.9458462,4.73777117 L11.3144308,1.82680535 L30.9088154,4.28763744 L28.4419385,23.7585736 L26.0953846,23.4635364 L26.7822923,29.9260624 L28.8876923,30.1907875 C29.2726572,30.2390152 29.6240391,29.9676123 29.6725846,29.5845468 L32.9725846,3.54701337 C32.9958446,3.36289706 32.9446,3.17713137 32.8301383,3.03063444 C32.7156766,2.8841375 32.5473871,2.78892648 32.3623385,2.76597325 L32.3623385,2.76597325 Z" id="Shape"></path>
                            <path d="M23.4447231,4.77060921 C23.4251536,4.58616612 23.3327431,4.41701684 23.1878269,4.30038325 C23.0429107,4.18374966 22.8573634,4.12918891 22.6720154,4.14870728 L0.629030769,6.46656761 C0.443537796,6.48616218 0.273470368,6.57829739 0.156258938,6.72269505 C0.0390475071,6.86709271 -0.0157015674,7.05191833 0.00406153846,7.23649331 L2.7786,33.3341456 C2.8196168,33.7178111 3.16519356,33.9959 3.5508,33.9555423 L25.5942923,31.6371768 C25.9803495,31.596366 26.2601166,31.2519353 26.2192615,30.8677563 L23.4447231,4.77060921 Z M4.04173846,27.5430312 L4.04173846,27.5359584 L4.03513846,27.5359584 L1.95969231,8.02056464 L21.5992615,5.95479941 L21.5992615,5.96187221 L21.6058615,5.96187221 L23.6813077,25.477266 L4.04173846,27.5430312 Z" id="Shape"></path>
                        </g>
                    </g>
                </g>
            </g>
        </g>
    </g>
</svg>